<svg width="20" height="20" viewBox="0 0 20 20" fill="none" xmlns="http://www.w3.org/2000/svg">
<path d="M13.2418 8.25168C15.694 8.25168 17.6557 10.3146 17.6557 12.8932C17.6557 13.8009 17.4105 14.657 16.9789 15.3687L20 18.5663L18.6366 20L15.5763 16.8334C14.8995 17.2769 14.0951 17.5348 13.2418 17.5348C10.7896 17.5348 8.82786 15.4719 8.82786 12.8932C8.82786 10.3146 10.7896 8.25168 13.2418 8.25168ZM13.2418 10.3146C12.5914 10.3146 11.9677 10.5863 11.5078 11.0699C11.048 11.5535 10.7896 12.2093 10.7896 12.8932C10.7896 13.5771 11.048 14.233 11.5078 14.7166C11.9677 15.2002 12.5914 15.4719 13.2418 15.4719C13.8921 15.4719 14.5159 15.2002 14.9757 14.7166C15.4356 14.233 15.694 13.5771 15.694 12.8932C15.694 12.2093 15.4356 11.5535 14.9757 11.0699C14.5159 10.5863 13.8921 10.3146 13.2418 10.3146ZM7.84698 0C8.88756 0 9.88551 0.434685 10.6213 1.20843C11.3571 1.98217 11.7705 3.0316 11.7705 4.12584C11.7705 5.06447 11.4664 5.93089 10.9662 6.63229C10.1226 6.96235 9.36734 7.4884 8.73958 8.14853L7.84698 8.25168C6.80641 8.25168 5.80845 7.81699 5.07266 7.04325C4.33686 6.2695 3.92349 5.22008 3.92349 4.12584C3.92349 3.0316 4.33686 1.98217 5.07266 1.20843C5.80845 0.434685 6.80641 0 7.84698 0ZM0 16.5034V14.4404C0 12.2537 3.24669 10.459 7.35655 10.3146C7.04267 11.1191 6.86611 11.9856 6.86611 12.8932C6.86611 14.2238 7.23884 15.4719 7.84698 16.5034H0Z" fill="#333333"/>
</svg>
