<svg width="20" height="20" viewBox="0 0 20 20" fill="none" xmlns="http://www.w3.org/2000/svg">
<path d="M8.0235 10.4762C5.59639 10.4762 3.30969 9.90476 2.00588 9V6.32381C3.48019 7.11429 5.62648 7.61905 8.0235 7.61905C10.4205 7.61905 12.5668 7.11429 14.0411 6.32381V8.64762C14.3721 8.6 14.7031 8.57143 15.0441 8.57143C15.3851 8.57143 15.716 8.6 16.047 8.64762V3.80952C16.047 1.70476 12.4565 0 8.0235 0C3.59052 0 0 1.70476 0 3.80952V13.3333C0 15.4381 3.60055 17.1429 8.0235 17.1429C8.12379 17.1429 8.22409 17.1429 8.31435 17.1429C8.13382 16.5333 8.0235 15.8952 8.0235 15.2381C4.14213 15.2381 2.00588 13.8095 2.00588 13.3333V11.2095C3.6206 11.9524 5.7368 12.381 8.0235 12.381C8.26421 12.381 8.49488 12.381 8.72556 12.3524C9.12673 11.5619 9.67835 10.8667 10.3503 10.2952C9.60814 10.4095 8.82585 10.4762 8.0235 10.4762ZM8.0235 1.90476C11.9049 1.90476 14.0411 3.33333 14.0411 3.80952C14.0411 4.28571 11.9049 5.71429 8.0235 5.71429C4.14213 5.71429 2.00588 4.28571 2.00588 3.80952C2.00588 3.33333 4.14213 1.90476 8.0235 1.90476ZM18.7549 15.8095V14.8571L19.8582 14.0952C19.9585 14 20.0588 13.9048 19.9585 13.8095L18.9555 12.1905C18.9555 12.0952 18.7549 12.0952 18.6546 12.0952L17.4511 12.5714C17.1502 12.381 16.8493 12.1905 16.5485 12.0952L16.3479 10.8571C16.3479 10.7619 16.2476 10.6667 16.1473 10.6667H14.1414C13.9408 10.6667 13.8405 10.7619 13.8405 10.8571L13.64 12.0952C13.3391 12.2857 13.1385 12.381 12.8376 12.5714L11.6341 12.0952C11.5338 12.0952 11.4335 12.0952 11.3332 12.1905L10.3303 13.8095C10.3303 13.9048 10.3303 14 10.4306 14.0952L11.5338 14.8571V15.8095L10.4306 16.5714C10.3303 16.6667 10.23 16.7619 10.3303 16.8571L11.3332 18.4762C11.4335 18.5714 11.5338 18.5714 11.6341 18.5714L12.8376 18.0952C13.0382 18.2857 13.3391 18.4762 13.64 18.5714L13.8405 19.8095C13.9408 19.9048 14.0411 20 14.1414 20H16.1473C16.2476 20 16.3479 19.9048 16.3479 19.8095L16.5485 18.5714C16.8493 18.381 17.0499 18.2857 17.3508 18.0952L18.5543 18.4762C18.6546 18.4762 18.7549 18.4762 18.8552 18.381L19.8582 16.7619C19.9585 16.6667 19.9585 16.5714 19.8582 16.5714L18.7549 15.8095ZM15.0441 16.6667C14.2417 16.6667 13.5397 16 13.5397 15.2381C13.5397 14.4762 14.2417 13.8095 15.0441 13.8095C15.8464 13.8095 16.5485 14.4762 16.5485 15.2381C16.5485 16 15.8464 16.6667 15.0441 16.6667Z" fill="#333333"/>
</svg>
