<svg width="20" height="20" viewBox="0 0 20 20" fill="none" xmlns="http://www.w3.org/2000/svg">
<path d="M18.75 12.5926H16.25V14.0741H18.75V15.5556H16.875C16.5435 15.5556 16.2255 15.7116 15.9911 15.9895C15.7567 16.2673 15.625 16.6441 15.625 17.037V18.5185C15.625 18.9114 15.7567 19.2883 15.9911 19.5661C16.2255 19.8439 16.5435 20 16.875 20H20V14.0741C20 13.257 19.4394 12.5926 18.75 12.5926ZM18.75 18.5185H16.875V17.037H18.75V18.5185ZM15 14.0741V12.5926H13.125V11.1111H11.875V12.5926H10.625V14.0741H11.875V18.5185C11.875 19.3356 12.4356 20 13.125 20H15V18.5185H13.125V14.0741H15ZM8.75 12.5926H6.25V14.0741H8.75V15.5556H6.875C6.54348 15.5556 6.22554 15.7116 5.99112 15.9895C5.7567 16.2673 5.625 16.6441 5.625 17.037V18.5185C5.625 18.9114 5.7567 19.2883 5.99112 19.5661C6.22554 19.8439 6.54348 20 6.875 20H10V14.0741C10 13.257 9.43938 12.5926 8.75 12.5926ZM8.75 18.5185H6.875V17.037H8.75V18.5185ZM3.125 9.62963V12.5926H1.25C0.560625 12.5926 0 13.257 0 14.0741V18.5185C0 19.3356 0.560625 20 1.25 20H4.375V9.62963H3.125ZM1.25 14.0741H3.125V18.5185H1.25V14.0741ZM2.5 8.14815V1.48149H7.24125L9.74125 4.44445H17.5V10.3704H18.75V4.44445C18.7497 4.05166 18.6179 3.67506 18.3835 3.39732C18.1492 3.11957 17.8314 2.96336 17.5 2.96297H10.2587L8.125 0.434079C8.00922 0.296072 7.8715 0.186649 7.71981 0.112141C7.56811 0.0376324 7.40546 -0.000481499 7.24125 4.59156e-06H2.5C2.16858 0.000396796 1.85083 0.156607 1.61648 0.434354C1.38213 0.7121 1.25033 1.08869 1.25 1.48149V8.14815H2.5Z" fill="#333333"/>
</svg>
